<svg width="512" height="512" viewBox="0 0 512 512" xmlns="http://www.w3.org/2000/svg" style="vertical-align:middle">
<defs>
<linearGradient id="icg" x1="0%" y1="0%" x2="100%" y2="100%"><stop offset="0%" stop-color="#f0d78c"/><stop offset="35%" stop-color="#d4ab4a"/><stop offset="100%" stop-color="#a07828"/></linearGradient>
<linearGradient id="icl" x1="0%" y1="0%" x2="0%" y2="100%"><stop offset="0%" stop-color="#f5e4a8"/><stop offset="50%" stop-color="#daba60"/><stop offset="100%" stop-color="#c49838"/></linearGradient>
<filter id="icw"><feGaussianBlur stdDeviation="10" result="b"/><feFlood flood-color="#d4ab4a" flood-opacity=".22"/><feComposite in2="b" operator="in" result="g"/><feMerge><feMergeNode in="g"/><feMergeNode in="SourceGraphic"/></feMerge></filter>
<filter id="ict"><feGaussianBlur stdDeviation="4" result="b"/><feFlood flood-color="#daba60" flood-opacity=".4"/><feComposite in2="b" operator="in" result="g"/><feMerge><feMergeNode in="g"/><feMergeNode in="SourceGraphic"/></feMerge></filter>
</defs>
<rect width="512" height="512" rx="72" fill="#111"/>
<rect x="18" y="18" width="476" height="476" rx="58" fill="none" stroke="url(#icg)" stroke-width="2" opacity=".6"/>
<g filter="url(#icw)">
<polygon points="256,68 400,222 256,424 112,222" fill="none" stroke="url(#icg)" stroke-width="4" stroke-linejoin="round"/>
<line x1="190" y1="142" x2="322" y2="142" stroke="#c8a848" stroke-width="1.8" opacity=".65"/>
<line x1="256" y1="68" x2="190" y2="142" stroke="#c8a848" stroke-width="1.6" opacity=".65"/>
<line x1="256" y1="68" x2="322" y2="142" stroke="#c8a848" stroke-width="1.6" opacity=".65"/>
<line x1="190" y1="142" x2="112" y2="222" stroke="#c8a848" stroke-width="1.4" opacity=".55"/>
<line x1="322" y1="142" x2="400" y2="222" stroke="#c8a848" stroke-width="1.4" opacity=".55"/>
<line x1="112" y1="222" x2="400" y2="222" stroke="#c8a848" stroke-width="1.6" opacity=".55"/>
<line x1="190" y1="142" x2="340" y2="222" stroke="#b89040" stroke-width="1.1" opacity=".38"/>
<line x1="322" y1="142" x2="172" y2="222" stroke="#b89040" stroke-width="1.1" opacity=".38"/>
<line x1="256" y1="142" x2="210" y2="222" stroke="#b89040" stroke-width=".9" opacity=".3"/>
<line x1="256" y1="142" x2="302" y2="222" stroke="#b89040" stroke-width=".9" opacity=".3"/>
<line x1="190" y1="142" x2="155" y2="185" stroke="#b89040" stroke-width=".8" opacity=".28"/>
<line x1="155" y1="185" x2="112" y2="222" stroke="#b89040" stroke-width=".8" opacity=".28"/>
<line x1="322" y1="142" x2="358" y2="185" stroke="#b89040" stroke-width=".8" opacity=".28"/>
<line x1="358" y1="185" x2="400" y2="222" stroke="#b89040" stroke-width=".8" opacity=".28"/>
<line x1="155" y1="222" x2="256" y2="424" stroke="#b89040" stroke-width="1.1" opacity=".38"/>
<line x1="196" y1="222" x2="256" y2="424" stroke="#b89040" stroke-width=".9" opacity=".3"/>
<line x1="358" y1="222" x2="256" y2="424" stroke="#b89040" stroke-width="1.1" opacity=".38"/>
<line x1="316" y1="222" x2="256" y2="424" stroke="#b89040" stroke-width=".9" opacity=".3"/>
<line x1="142" y1="262" x2="370" y2="262" stroke="#b89040" stroke-width=".8" opacity=".24"/>
<line x1="175" y1="305" x2="337" y2="305" stroke="#b89040" stroke-width=".7" opacity=".2"/>
<line x1="207" y1="348" x2="305" y2="348" stroke="#b89040" stroke-width=".6" opacity=".16"/>
<line x1="142" y1="262" x2="256" y2="305" stroke="#b89040" stroke-width=".6" opacity=".18"/>
<line x1="370" y1="262" x2="256" y2="305" stroke="#b89040" stroke-width=".6" opacity=".18"/>
<line x1="175" y1="305" x2="207" y2="348" stroke="#b89040" stroke-width=".5" opacity=".14"/>
<line x1="337" y1="305" x2="305" y2="348" stroke="#b89040" stroke-width=".5" opacity=".14"/>
</g>
<text x="256" y="238" text-anchor="middle" dominant-baseline="middle" font-size="108" font-family="Georgia,serif" fill="url(#icl)" filter="url(#ict)">L</text>
<text x="256" y="472" text-anchor="middle" dominant-baseline="middle" font-size="36" letter-spacing="10" font-family="Georgia,serif" fill="url(#icg)" opacity=".9">LUXYRA</text>
</svg>